<svg width="36" height="36" viewBox="0 0 36 36" fill="none" xmlns="http://www.w3.org/2000/svg">
<path d="M0 18C0 8.05888 8.05888 0 18 0C27.9411 0 36 8.05888 36 18C36 27.9411 27.9411 36 18 36C8.05888 36 0 27.9411 0 18Z" fill="#FD5F54"/>
<path d="M17.9998 11.1133C18.6365 11.1133 19.2298 11.4247 19.5931 11.9447L19.6631 12.0513L25.0725 21.0833C25.2369 21.3681 25.3263 21.6898 25.3324 22.0186C25.3385 22.3473 25.2611 22.6722 25.1075 22.9628C24.9538 23.2534 24.7288 23.5003 24.4537 23.6803C24.1786 23.8603 23.8623 23.9676 23.5345 23.992L23.4045 23.9973H12.5878C12.2596 23.9936 11.9377 23.9069 11.6521 23.7451C11.3665 23.5833 11.1266 23.3518 10.9547 23.0722C10.7828 22.7926 10.6846 22.474 10.6691 22.1461C10.6537 21.8183 10.7216 21.4919 10.8665 21.1973L10.9325 21.074L16.3391 12.0487C16.512 11.763 16.7558 11.5269 17.0467 11.363C17.3376 11.1992 17.6659 11.1132 17.9998 11.1133ZM18.0065 20L17.9218 20.0047C17.7598 20.0239 17.6104 20.102 17.5021 20.224C17.3937 20.346 17.3339 20.5035 17.3339 20.6667C17.3339 20.8299 17.3937 20.9874 17.5021 21.1094C17.6104 21.2314 17.7598 21.3094 17.9218 21.3287L17.9998 21.3333L18.0845 21.3287C18.2465 21.3094 18.3958 21.2314 18.5042 21.1094C18.6125 20.9874 18.6724 20.8299 18.6724 20.6667C18.6724 20.5035 18.6125 20.346 18.5042 20.224C18.3958 20.102 18.2465 20.0239 18.0845 20.0047L18.0065 20ZM17.9998 15.3333C17.8365 15.3334 17.6789 15.3933 17.5569 15.5018C17.4349 15.6103 17.3569 15.7598 17.3378 15.922L17.3331 16V18.6667L17.3378 18.7447C17.3571 18.9067 17.4351 19.056 17.5571 19.1644C17.6791 19.2728 17.8366 19.3326 17.9998 19.3326C18.163 19.3326 18.3205 19.2728 18.4425 19.1644C18.5645 19.056 18.6425 18.9067 18.6618 18.7447L18.6665 18.6667V16L18.6618 15.922C18.6427 15.7598 18.5647 15.6103 18.4427 15.5018C18.3207 15.3933 18.1631 15.3334 17.9998 15.3333Z" fill="white"/>
</svg>
