<svg width="238" height="228" viewBox="0 0 238 228" fill="none" xmlns="http://www.w3.org/2000/svg">
<path fill-rule="evenodd" clip-rule="evenodd" d="M104.955 0.277909C103.274 0.625582 97.5262 5.05942 43.1623 47.9501C-12.9788 92.2424 -22.2211 99.7094 -23.0584 101.451C-25.8208 107.201 -18.9482 116.386 -11.8819 116.386C-7.66483 116.386 -7.40108 116.217 10.9197 101.722C43.4081 76.0207 101.774 30.1928 104.405 28.3195L107.324 26.2415L111.005 29.1857C113.03 30.8062 119.299 35.6906 124.936 40.0405C140.593 52.1221 143.193 54.1642 184.121 86.5218C199.809 98.9251 206.867 104.462 216.779 112.14C220.663 115.148 223.211 116.386 225.522 116.386C230.287 116.386 235.303 112.598 237.004 107.716C238.288 104.033 238.263 103.342 236.769 101.061C235.852 99.6614 225.317 90.8437 213.357 81.4665C201.399 72.0894 185.544 59.5931 178.126 53.6977C108.095 -1.96198 109.792 -0.723149 104.955 0.277909ZM160.393 15.1429C159.627 15.4526 159.144 17.5826 159.144 20.6527C159.144 24.8178 159.48 25.746 161.142 26.1805C162.862 26.6301 163.144 27.5562 163.169 32.8313L163.197 38.9585L176.838 49.4487C184.34 55.2182 190.845 60.0886 191.295 60.2715C191.745 60.4553 192.113 53.0862 192.113 43.8979C192.113 29.2786 192.327 27.0337 193.824 25.9388C195.81 24.4871 196.556 17.7215 194.945 15.7803C194.136 14.8062 189.831 14.5015 177.755 14.5605C168.892 14.6034 161.08 14.8662 160.393 15.1429ZM25.2702 143.822V153.351H34.7992H44.3273L44.0405 144.11L43.7528 134.868L34.5115 134.581L25.2702 134.294V143.822ZM49.9969 135.092L47.2495 135.501V144.425V153.351H56.7406H66.2317V144.079V134.805L59.488 134.744C55.7785 134.711 51.5075 134.867 49.9969 135.092ZM87.4617 135.03C86.4876 135.424 86.2129 145.644 86.2129 181.408V227.281L108.442 227.266C120.668 227.257 131.253 226.882 131.966 226.429C133.841 225.24 133.814 136.394 131.938 135.203C130.584 134.344 89.5587 134.184 87.4617 135.03ZM166.637 138.645C160.804 140.54 156.147 146.832 156.147 152.819C156.147 155.268 156.356 155.349 162.672 155.349C166.974 155.349 169.359 154.923 169.67 154.1C170.448 152.05 170.862 140.932 170.225 139.239C169.749 137.976 169.051 137.86 166.637 138.645ZM174.3 139.659C173.709 140.371 173.286 144.193 173.359 148.151L173.493 155.349H180.805C188.013 155.349 188.117 155.312 188.117 152.752C188.117 148.86 185.239 143.552 181.638 140.807C178.059 138.076 175.895 137.739 174.3 139.659ZM25.2702 165.851V175.354L34.7533 175.156L44.2363 174.958L44.1624 165.653L44.0875 156.348H34.6793H25.2702V165.851ZM47.2495 165.233C47.2495 175.652 46.8968 175.33 58.3211 175.33H66.2317V165.839V156.348H56.7406H47.2495V165.233ZM156.147 166.713V175.08H162.659C166.241 175.08 169.464 174.608 169.82 174.031C170.177 173.454 170.534 169.689 170.613 165.664L170.758 158.346H163.452H156.147V166.713ZM173.388 161.593C173.371 163.378 173.564 167.201 173.815 170.085L174.274 175.33H179.615C188.039 175.33 188.117 175.246 188.117 166.232V158.346H180.768H173.418L173.388 161.593ZM127.974 178.527C129.635 180.189 129.471 182.336 127.519 184.493C125.213 187.04 122.521 186.77 120.572 183.796C119.024 181.434 119.032 181.148 120.703 179.301C122.708 177.087 126.164 176.718 127.974 178.527Z" fill="#FD5F54"/>
</svg>
